<svg width="230" height="41" viewBox="0 0 230 41" fill="none" xmlns="http://www.w3.org/2000/svg">
<path d="M32.28 1.92V30H25.44V13.16L19.16 30H13.64L7.32 13.12V30H0.48V1.92H8.56L16.44 21.36L24.24 1.92H32.28ZM35.8388 18.8C35.8388 16.5067 36.2654 14.4933 37.1188 12.76C37.9988 11.0267 39.1854 9.69333 40.6788 8.76C42.1721 7.82667 43.8388 7.36 45.6788 7.36C47.2521 7.36 48.6254 7.68 49.7988 8.32C50.9988 8.96 51.9188 9.8 52.5588 10.84V7.68H59.3988V30H52.5588V26.84C51.8921 27.88 50.9588 28.72 49.7588 29.36C48.5854 30 47.2121 30.32 45.6388 30.32C43.8254 30.32 42.1721 29.8533 40.6788 28.92C39.1854 27.96 37.9988 26.6133 37.1188 24.88C36.2654 23.12 35.8388 21.0933 35.8388 18.8ZM52.5588 18.84C52.5588 17.1333 52.0788 15.7867 51.1188 14.8C50.1854 13.8133 49.0388 13.32 47.6788 13.32C46.3188 13.32 45.1588 13.8133 44.1988 14.8C43.2654 15.76 42.7988 17.0933 42.7988 18.8C42.7988 20.5067 43.2654 21.8667 44.1988 22.88C45.1588 23.8667 46.3188 24.36 47.6788 24.36C49.0388 24.36 50.1854 23.8667 51.1188 22.88C52.0788 21.8933 52.5588 20.5467 52.5588 18.84ZM72.8272 7.36C74.4005 7.36 75.7739 7.68 76.9472 8.32C78.1472 8.96 79.0672 9.8 79.7072 10.84V7.68H86.5472V29.96C86.5472 32.0133 86.1339 33.8667 85.3072 35.52C84.5072 37.2 83.2672 38.5333 81.5872 39.52C79.9339 40.5067 77.8672 41 75.3872 41C72.0805 41 69.4005 40.2133 67.3472 38.64C65.2939 37.0933 64.1205 34.9867 63.8272 32.32H70.5872C70.8005 33.1733 71.3072 33.84 72.1072 34.32C72.9072 34.8267 73.8939 35.08 75.0672 35.08C76.4805 35.08 77.6005 34.6667 78.4272 33.84C79.2805 33.04 79.7072 31.7467 79.7072 29.96V26.8C79.0405 27.84 78.1205 28.6933 76.9472 29.36C75.7739 30 74.4005 30.32 72.8272 30.32C70.9872 30.32 69.3205 29.8533 67.8272 28.92C66.3339 27.96 65.1472 26.6133 64.2672 24.88C63.4139 23.12 62.9872 21.0933 62.9872 18.8C62.9872 16.5067 63.4139 14.4933 64.2672 12.76C65.1472 11.0267 66.3339 9.69333 67.8272 8.76C69.3205 7.82667 70.9872 7.36 72.8272 7.36ZM79.7072 18.84C79.7072 17.1333 79.2272 15.7867 78.2672 14.8C77.3339 13.8133 76.1872 13.32 74.8272 13.32C73.4672 13.32 72.3072 13.8133 71.3472 14.8C70.4139 15.76 69.9472 17.0933 69.9472 18.8C69.9472 20.5067 70.4139 21.8667 71.3472 22.88C72.3072 23.8667 73.4672 24.36 74.8272 24.36C76.1872 24.36 77.3339 23.8667 78.2672 22.88C79.2272 21.8933 79.7072 20.5467 79.7072 18.84ZM90.1356 18.8C90.1356 16.5067 90.5623 14.4933 91.4156 12.76C92.2956 11.0267 93.4823 9.69333 94.9756 8.76C96.469 7.82667 98.1356 7.36 99.9756 7.36C101.442 7.36 102.776 7.66666 103.976 8.28C105.202 8.89333 106.162 9.72 106.856 10.76V0.4H113.696V30H106.856V26.8C106.216 27.8667 105.296 28.72 104.096 29.36C102.922 30 101.549 30.32 99.9756 30.32C98.1356 30.32 96.469 29.8533 94.9756 28.92C93.4823 27.96 92.2956 26.6133 91.4156 24.88C90.5623 23.12 90.1356 21.0933 90.1356 18.8ZM106.856 18.84C106.856 17.1333 106.376 15.7867 105.416 14.8C104.482 13.8133 103.336 13.32 101.976 13.32C100.616 13.32 99.4556 13.8133 98.4956 14.8C97.5623 15.76 97.0956 17.0933 97.0956 18.8C97.0956 20.5067 97.5623 21.8667 98.4956 22.88C99.4556 23.8667 100.616 24.36 101.976 24.36C103.336 24.36 104.482 23.8667 105.416 22.88C106.376 21.8933 106.856 20.5467 106.856 18.84ZM117.284 18.8C117.284 16.5067 117.711 14.4933 118.564 12.76C119.444 11.0267 120.631 9.69333 122.124 8.76C123.617 7.82667 125.284 7.36 127.124 7.36C128.697 7.36 130.071 7.68 131.244 8.32C132.444 8.96 133.364 9.8 134.004 10.84V7.68H140.844V30H134.004V26.84C133.337 27.88 132.404 28.72 131.204 29.36C130.031 30 128.657 30.32 127.084 30.32C125.271 30.32 123.617 29.8533 122.124 28.92C120.631 27.96 119.444 26.6133 118.564 24.88C117.711 23.12 117.284 21.0933 117.284 18.8ZM134.004 18.84C134.004 17.1333 133.524 15.7867 132.564 14.8C131.631 13.8133 130.484 13.32 129.124 13.32C127.764 13.32 126.604 13.8133 125.644 14.8C124.711 15.76 124.244 17.0933 124.244 18.8C124.244 20.5067 124.711 21.8667 125.644 22.88C126.604 23.8667 127.764 24.36 129.124 24.36C130.484 24.36 131.631 23.8667 132.564 22.88C133.524 21.8933 134.004 20.5467 134.004 18.84ZM160.697 27.04H170.457V30H157.057V2.12H160.697V27.04ZM194.322 18.2C194.322 18.8933 194.282 19.6267 194.202 20.4H176.682C176.816 22.56 177.549 24.2533 178.882 25.48C180.242 26.68 181.882 27.28 183.802 27.28C185.376 27.28 186.682 26.92 187.722 26.2C188.789 25.4533 189.536 24.4667 189.962 23.24H193.882C193.296 25.3467 192.122 27.0667 190.362 28.4C188.602 29.7067 186.416 30.36 183.802 30.36C181.722 30.36 179.856 29.8933 178.202 28.96C176.576 28.0267 175.296 26.7067 174.362 25C173.429 23.2667 172.962 21.2667 172.962 19C172.962 16.7333 173.416 14.7467 174.322 13.04C175.229 11.3333 176.496 10.0267 178.122 9.12C179.776 8.18667 181.669 7.72 183.802 7.72C185.882 7.72 187.722 8.17333 189.322 9.08C190.922 9.98667 192.149 11.24 193.002 12.84C193.882 14.4133 194.322 16.2 194.322 18.2ZM190.562 17.44C190.562 16.0533 190.256 14.8667 189.642 13.88C189.029 12.8667 188.189 12.1067 187.122 11.6C186.082 11.0667 184.922 10.8 183.642 10.8C181.802 10.8 180.229 11.3867 178.922 12.56C177.642 13.7333 176.909 15.36 176.722 17.44H190.562ZM197.767 18.96C197.767 16.72 198.22 14.76 199.127 13.08C200.034 11.3733 201.274 10.0533 202.847 9.12C204.447 8.18667 206.22 7.72 208.167 7.72C210.087 7.72 211.754 8.13333 213.167 8.96C214.58 9.78667 215.634 10.8267 216.327 12.08V8.08H220.007V30H216.327V25.92C215.607 27.2 214.527 28.2667 213.087 29.12C211.674 29.9467 210.02 30.36 208.127 30.36C206.18 30.36 204.42 29.88 202.847 28.92C201.274 27.96 200.034 26.6133 199.127 24.88C198.22 23.1467 197.767 21.1733 197.767 18.96ZM216.327 19C216.327 17.3467 215.994 15.9067 215.327 14.68C214.66 13.4533 213.754 12.52 212.607 11.88C211.487 11.2133 210.247 10.88 208.887 10.88C207.527 10.88 206.287 11.2 205.167 11.84C204.047 12.48 203.154 13.4133 202.487 14.64C201.82 15.8667 201.487 17.3067 201.487 18.96C201.487 20.64 201.82 22.1067 202.487 23.36C203.154 24.5867 204.047 25.5333 205.167 26.2C206.287 26.84 207.527 27.16 208.887 27.16C210.247 27.16 211.487 26.84 212.607 26.2C213.754 25.5333 214.66 24.5867 215.327 23.36C215.994 22.1067 216.327 20.6533 216.327 19ZM229.798 0.4V30H226.158V0.4H229.798Z" fill="white"/>
</svg>
